<?xml version="1.0" encoding="UTF-8"?>
<!DOCTYPE svg PUBLIC "-//W3C//DTD SVG 1.1//EN" "http://www.w3.org/Graphics/SVG/1.1/DTD/svg11.dtd">
<!-- Creator: CorelDRAW X7 -->
<svg xmlns="http://www.w3.org/2000/svg" xml:space="preserve" width="80px" height="80px" version="1.1" style="shape-rendering:geometricPrecision; text-rendering:geometricPrecision; image-rendering:optimizeQuality; fill-rule:evenodd; clip-rule:evenodd"
viewBox="0 0 86 86"
 xmlns:xlink="http://www.w3.org/1999/xlink">
 <defs>
  <style type="text/css">
   <![CDATA[
    .fil0 {fill:#9333EA}
    .fil1 {fill:#FEFEFE;fill-rule:nonzero}
   ]]>
  </style>
 </defs>
 <g id="Layer_x0020_1">
  <metadata id="CorelCorpID_0Corel-Layer"/>
  <g id="_1878289034144">
   <circle class="fil0" cx="43" cy="43" r="43"/>
   <path class="fil1" d="M77 68c-62,48 -56,-65 -5,-54 20,4 -22,68 -8,23 23,-73 -67,69 4,32 4,-3 2,0 7,-5 1,3 2,4 2,4z"/>
   <path class="fil1" d="M14 42l0 0c-1,5 -3,13 -3,19 0,4 -6,4 -6,0 0,-4 5,-25 3,-26 -4,0 -3,-5 0,-5 3,0 4,-2 7,-1 4,3 22,-3 22,2 0,5 -3,-1 -4,7 -3,12 -1,26 -5,26 -8,0 1,-29 -1,-30 0,0 -11,0 -12,1 -1,1 -1,5 -1,7z"/>
  </g>
 </g>
</svg>
