<?xml version="1.0" encoding="UTF-8"?>
<!DOCTYPE svg PUBLIC "-//W3C//DTD SVG 1.1//EN" "http://www.w3.org/Graphics/SVG/1.1/DTD/svg11.dtd">
<!-- Creator: CorelDRAW X7 -->
<svg xmlns="http://www.w3.org/2000/svg" xml:space="preserve" width="152px" height="152px" version="1.1" style="shape-rendering:geometricPrecision; text-rendering:geometricPrecision; image-rendering:optimizeQuality; fill-rule:evenodd; clip-rule:evenodd"
viewBox="0 0 163 163"
 xmlns:xlink="http://www.w3.org/1999/xlink">
 <defs>
  <style type="text/css">
   <![CDATA[
    .fil0 {fill:#9333EA}
    .fil1 {fill:#FEFEFE;fill-rule:nonzero}
   ]]>
  </style>
 </defs>
 <g id="Layer_x0020_1">
  <metadata id="CorelCorpID_0Corel-Layer"/>
  <g id="_1878402853872">
   <circle class="fil0" cx="81" cy="81" r="81"/>
   <path class="fil1" d="M146 130c-118,90 -105,-123 -9,-104 38,7 -41,130 -15,45 44,-139 -127,131 8,61 7,-6 3,-2 12,-10 3,5 4,8 4,8z"/>
   <path class="fil1" d="M26 79l0 0c-1,10 -5,26 -5,38 0,6 -11,7 -11,-2 0,-7 9,-48 6,-48 -9,-1 -6,-10 0,-10 5,0 7,-4 12,-1 8,5 42,-7 42,3 0,9 -5,-1 -8,13 -5,23 -1,49 -8,49 -16,0 2,-55 -3,-56 -1,0 -21,0 -23,2 -1,1 -2,9 -2,12z"/>
  </g>
 </g>
</svg>
