<?xml version="1.0" encoding="UTF-8"?>
<!DOCTYPE svg PUBLIC "-//W3C//DTD SVG 1.1//EN" "http://www.w3.org/Graphics/SVG/1.1/DTD/svg11.dtd">
<!-- Creator: CorelDRAW X7 -->
<svg xmlns="http://www.w3.org/2000/svg" xml:space="preserve" width="180px" height="180px" version="1.1" style="shape-rendering:geometricPrecision; text-rendering:geometricPrecision; image-rendering:optimizeQuality; fill-rule:evenodd; clip-rule:evenodd"
viewBox="0 0 193 193"
 xmlns:xlink="http://www.w3.org/1999/xlink">
 <defs>
  <style type="text/css">
   <![CDATA[
    .fil0 {fill:#9333EA}
    .fil1 {fill:#FEFEFE;fill-rule:nonzero}
   ]]>
  </style>
 </defs>
 <g id="Layer_x0020_1">
  <metadata id="CorelCorpID_0Corel-Layer"/>
  <g id="_1878290850368">
   <circle class="fil0" cx="96" cy="96" r="96"/>
   <path class="fil1" d="M173 154c-140,107 -125,-146 -11,-124 45,9 -49,155 -17,54 51,-164 -151,155 9,72 9,-7 4,-2 15,-12 3,6 4,10 4,10z"/>
   <path class="fil1" d="M30 94l0 0c0,11 -6,30 -5,44 0,8 -13,9 -13,-2 0,-8 10,-56 7,-56 -10,-1 -8,-12 -1,-12 7,-1 10,-5 15,-2 10,6 50,-8 50,4 0,11 -6,-2 -10,16 -5,26 0,58 -9,58 -19,0 2,-66 -3,-67 -1,0 -25,-1 -28,2 -1,1 -2,11 -3,15z"/>
  </g>
 </g>
</svg>
