<?xml version="1.0" encoding="UTF-8"?>
<!DOCTYPE svg PUBLIC "-//W3C//DTD SVG 1.1//EN" "http://www.w3.org/Graphics/SVG/1.1/DTD/svg11.dtd">
<!-- Creator: CorelDRAW X7 -->
<svg xmlns="http://www.w3.org/2000/svg" xml:space="preserve" width="48px" height="48px" version="1.1" style="shape-rendering:geometricPrecision; text-rendering:geometricPrecision; image-rendering:optimizeQuality; fill-rule:evenodd; clip-rule:evenodd"
viewBox="0 0 51 51"
 xmlns:xlink="http://www.w3.org/1999/xlink">
 <defs>
  <style type="text/css">
   <![CDATA[
    .fil0 {fill:#9333EA}
    .fil1 {fill:#FEFEFE;fill-rule:nonzero}
   ]]>
  </style>
 </defs>
 <g id="Layer_x0020_1">
  <metadata id="CorelCorpID_0Corel-Layer"/>
  <g id="_1878290846432">
   <circle class="fil0" cx="26" cy="26" r="26"/>
   <path class="fil1" d="M46 41c-37,29 -33,-39 -3,-33 12,3 -13,41 -4,14 13,-43 -41,42 2,20 2,-2 1,-1 4,-4 1,2 1,3 1,3z"/>
   <path class="fil1" d="M8 25l0 0c0,3 -1,8 -1,12 0,2 -4,2 -4,-1 0,-2 3,-15 2,-15 -3,0 -2,-3 0,-3 2,0 2,-1 4,0 2,1 13,-3 13,1 0,2 -1,-1 -2,4 -2,7 -1,15 -3,15 -5,0 1,-17 -1,-17 0,0 -6,-1 -7,0 -1,0 -1,3 -1,4z"/>
  </g>
 </g>
</svg>
